<svg width="22" height="22" viewBox="0 0 22 22" fill="none" xmlns="http://www.w3.org/2000/svg">
<path d="M11 0C12.5227 0 13.9491 0.288783 15.2792 0.866348C16.6094 1.44391 17.7733 2.22713 18.7709 3.21599C19.7685 4.20485 20.5561 5.36873 21.1337 6.70764C21.7112 8.04654 22 9.47733 22 11C22 12.5227 21.7112 13.9491 21.1337 15.2792C20.5561 16.6094 19.7685 17.7733 18.7709 18.7709C17.7733 19.7685 16.6094 20.5561 15.2792 21.1337C13.9491 21.7112 12.5227 22 11 22C9.47733 22 8.04654 21.7112 6.70764 21.1337C5.36873 20.5561 4.20485 19.7685 3.21599 18.7709C2.22713 17.7733 1.44391 16.6094 0.866348 15.2792C0.288783 13.9491 0 12.5227 0 11C0 9.47733 0.288783 8.04654 0.866348 6.70764C1.44391 5.36873 2.22713 4.20485 3.21599 3.21599C4.20485 2.22713 5.36873 1.44391 6.70764 0.866348C8.04654 0.288783 9.47733 0 11 0ZM11.6563 5.7494C11.4463 5.97693 11.2713 6.26571 11.1313 6.61575C10.9912 6.96579 10.9387 7.31583 10.9737 7.66587C11.3238 7.70088 11.6695 7.62649 12.0107 7.44272C12.352 7.25895 12.6364 7.0358 12.864 6.77327C13.0915 6.51074 13.2665 6.20883 13.389 5.86754C13.5115 5.52625 13.5553 5.17184 13.5203 4.8043C13.2053 4.8218 12.8727 4.91806 12.5227 5.09308C12.1726 5.2681 11.8839 5.48687 11.6563 5.7494ZM15.2792 15.6468C15.5768 15.2092 15.7955 14.8111 15.9356 14.4523C16.0756 14.0935 16.1456 13.9053 16.1456 13.8878C15.8305 13.7478 15.5505 13.564 15.3055 13.3365C15.0955 13.144 14.9029 12.8858 14.7279 12.5621C14.5529 12.2383 14.4654 11.8401 14.4654 11.3675C14.4654 10.9825 14.531 10.6456 14.6623 10.3568C14.7936 10.068 14.9423 9.82737 15.1086 9.63484C15.2749 9.44232 15.4324 9.29356 15.5811 9.18854C15.7299 9.08353 15.813 9.03103 15.8305 9.03103C15.638 8.7685 15.428 8.5541 15.2005 8.38783C14.973 8.22156 14.7498 8.09905 14.531 8.02029C14.3123 7.94153 14.111 7.88465 13.9272 7.84964C13.7434 7.81464 13.599 7.79714 13.494 7.79714C13.249 7.77963 13.0084 7.79714 12.7721 7.84964C12.5358 7.90215 12.3126 7.96778 12.1026 8.04654C11.8926 8.1253 11.7001 8.19968 11.5251 8.26969C11.35 8.3397 11.2013 8.3747 11.0788 8.3747C10.8337 8.3747 10.5274 8.28282 10.1599 8.09905C9.79236 7.91527 9.39857 7.82339 8.97852 7.82339C8.43596 7.84089 7.93715 7.98528 7.4821 8.25656C7.02705 8.52784 6.65951 8.89976 6.37948 9.37232C6.09944 9.84487 5.93317 10.3656 5.88067 10.9344C5.82816 11.5032 5.85004 12.0676 5.9463 12.6277C6.04256 13.1877 6.20445 13.7303 6.43198 14.2554C6.65951 14.7804 6.90453 15.2355 7.16706 15.6205C7.42959 15.9881 7.72713 16.3425 8.05967 16.6838C8.3922 17.0251 8.75975 17.187 9.16229 17.1695C9.37232 17.1695 9.55171 17.1432 9.70048 17.0907C9.84924 17.0382 9.99801 16.9813 10.1468 16.92C10.2955 16.8588 10.4531 16.8019 10.6193 16.7494C10.7856 16.6969 10.9912 16.6706 11.2363 16.6706C11.4813 16.6706 11.687 16.6969 11.8532 16.7494C12.0195 16.8019 12.177 16.8588 12.3258 16.92C12.4745 16.9813 12.6277 17.0382 12.7852 17.0907C12.9427 17.1432 13.1265 17.1695 13.3365 17.1695C13.7741 17.1519 14.1416 16.9901 14.4391 16.6838C14.7367 16.3775 15.0167 16.0318 15.2792 15.6468Z" fill="#2A2121"/>
</svg>
