<svg width="22" height="22" viewBox="0 0 22 22" fill="none" xmlns="http://www.w3.org/2000/svg">
<path d="M10.685 8.11217C10.685 8.67224 10.5625 9.11854 10.3174 9.45107C10.0724 9.78361 9.6786 9.94988 9.13604 9.94988C8.7685 9.94988 8.44033 9.84049 8.15155 9.62172C7.86277 9.40294 7.62212 9.13166 7.42959 8.80788C7.23707 8.48409 7.08831 8.13405 6.98329 7.75776C6.87828 7.38146 6.82578 7.0358 6.82578 6.72076C6.82578 6.21321 6.96579 5.7494 7.24582 5.32936C7.54336 4.94431 7.9459 4.75179 8.45346 4.75179C8.821 4.75179 9.15354 4.86555 9.45107 5.09308C9.74861 5.3206 9.97613 5.60939 10.1337 5.95943C10.3087 6.30947 10.4443 6.67263 10.5406 7.04893C10.6368 7.42522 10.685 7.77963 10.685 8.11217ZM11.42 14.3866C11.4726 14.4391 11.5163 14.5354 11.5513 14.6754C11.6388 14.8504 11.6826 15.0605 11.6826 15.3055C11.6826 15.673 11.6038 15.9793 11.4463 16.2243C11.2888 16.4694 11.0831 16.6663 10.8294 16.815C10.5756 16.9638 10.2955 17.0732 9.98926 17.1432C9.68297 17.2132 9.37232 17.2482 9.05728 17.2482C8.3222 17.2482 7.63087 17.0819 6.98329 16.7494C6.66826 16.5744 6.41448 16.3425 6.22196 16.0537C6.02944 15.7649 5.93317 15.428 5.93317 15.043C5.93317 14.5179 6.08632 14.1066 6.3926 13.8091C6.69889 13.5115 7.07955 13.2928 7.53461 13.1527C7.84964 13.0477 8.15155 12.9733 8.44033 12.9296C8.72912 12.8858 9.02227 12.864 9.31981 12.864C9.40732 12.864 9.48608 12.8683 9.55609 12.8771C9.62609 12.8858 9.68735 12.8902 9.73986 12.8902L9.97613 13.074C10.0636 13.109 10.1249 13.144 10.1599 13.179C10.1949 13.214 10.2299 13.2403 10.2649 13.2578L10.5274 13.4415C10.5975 13.494 10.65 13.5378 10.685 13.5728L10.79 13.6778C10.825 13.6953 10.9037 13.7653 11.0263 13.8878C11.1138 13.9753 11.1838 14.0541 11.2363 14.1241C11.2888 14.1941 11.35 14.2816 11.42 14.3866ZM11 0C12.5227 0 13.9491 0.288783 15.2792 0.866348C16.6094 1.44391 17.7733 2.22713 18.7709 3.21599C19.7685 4.20485 20.5561 5.36873 21.1337 6.70764C21.7112 8.04654 22 9.47733 22 11C22 12.5227 21.7112 13.9491 21.1337 15.2792C20.5561 16.6094 19.7685 17.7733 18.7709 18.7709C17.7733 19.7685 16.6094 20.5561 15.2792 21.1337C13.9491 21.7112 12.5227 22 11 22C9.47733 22 8.05091 21.7112 6.72076 21.1337C5.39061 20.5561 4.22673 19.7685 3.22912 18.7709C2.2315 17.7733 1.44391 16.6094 0.866348 15.2792C0.288783 13.9491 0 12.5227 0 11C0 9.47733 0.288783 8.04654 0.866348 6.70764C1.44391 5.36873 2.2315 4.20485 3.22912 3.21599C4.22673 2.22713 5.39061 1.44391 6.72076 0.866348C8.05091 0.288783 9.47733 0 11 0ZM11.6826 16.9332C12.4702 16.2506 12.864 15.4718 12.864 14.5967C12.864 14.0191 12.7327 13.5422 12.4702 13.1659C12.2076 12.7896 11.9189 12.4658 11.6038 12.1945C11.2888 11.9232 11 11.6826 10.7375 11.4726C10.4749 11.2625 10.3437 11.0263 10.3437 10.7637C10.3437 10.4487 10.4793 10.173 10.7506 9.93675C11.0219 9.70048 11.2888 9.43357 11.5513 9.13604C11.7438 8.94352 11.9057 8.68974 12.037 8.3747C12.1683 8.05967 12.2339 7.69212 12.2339 7.27208C12.2339 6.83453 12.1201 6.37072 11.8926 5.88067C11.6826 5.42562 11.3763 5.07558 10.9737 4.83055H12.1026L13.2315 4.17422H9.58234C9.07478 4.17422 8.55847 4.22673 8.03341 4.33174C7.26333 4.50676 6.61575 4.90056 6.09069 5.51313C5.56563 6.1257 5.3031 6.81702 5.3031 7.58711C5.3031 8.42721 5.59189 9.10979 6.16945 9.63484C6.76452 10.1774 7.47335 10.4487 8.29594 10.4487H8.5716L8.89976 10.4224C8.88226 10.4574 8.86038 10.5143 8.83413 10.5931L8.7685 10.79C8.73349 10.8425 8.71599 10.9562 8.71599 11.1313C8.71599 11.5338 8.89101 11.9451 9.24105 12.3652C8.40095 12.3827 7.55211 12.5227 6.69451 12.7852C6.23946 12.9252 5.83691 13.1265 5.48687 13.389C5.13683 13.6516 4.8743 13.9578 4.69928 14.3079C4.48926 14.7104 4.38425 15.0867 4.38425 15.4368C4.38425 15.9093 4.50676 16.3119 4.75179 16.6444C4.99682 16.9769 5.31185 17.2482 5.6969 17.4582C6.08194 17.6683 6.49324 17.817 6.93079 17.9045C7.36834 17.992 7.78838 18.0358 8.19093 18.0358C9.6786 18.0358 10.8425 17.6683 11.6826 16.9332ZM18.2458 6.30072H16.1193V4.17422H15.043V6.30072H12.9165V7.35084H15.043V9.50358H16.1193V7.35084H18.2458V6.30072Z" fill="#2A2121"/>
</svg>
