<svg width="26" height="26" viewBox="0 0 26 26" fill="none" xmlns="http://www.w3.org/2000/svg">
<path d="M13.0001 14.0833C13.5984 14.0833 14.0834 13.5983 14.0834 13C14.0834 12.4017 13.5984 11.9166 13.0001 11.9166C12.4018 11.9166 11.9167 12.4017 11.9167 13C11.9167 13.5983 12.4018 14.0833 13.0001 14.0833Z" fill="#2A2121" stroke="#2A2121" stroke-width="2" stroke-linecap="round" stroke-linejoin="round"/>
<path d="M20.5833 14.0833C21.1816 14.0833 21.6667 13.5983 21.6667 13C21.6667 12.4017 21.1816 11.9166 20.5833 11.9166C19.985 11.9166 19.5 12.4017 19.5 13C19.5 13.5983 19.985 14.0833 20.5833 14.0833Z" fill="#2A2121" stroke="#2A2121" stroke-width="2" stroke-linecap="round" stroke-linejoin="round"/>
<path d="M5.41659 14.0833C6.01489 14.0833 6.49992 13.5983 6.49992 13C6.49992 12.4017 6.01489 11.9166 5.41659 11.9166C4.81828 11.9166 4.33325 12.4017 4.33325 13C4.33325 13.5983 4.81828 14.0833 5.41659 14.0833Z" fill="#2A2121" stroke="#2A2121" stroke-width="2" stroke-linecap="round" stroke-linejoin="round"/>
</svg>
