<svg width="27" height="26" viewBox="0 0 27 26" fill="none" xmlns="http://www.w3.org/2000/svg">
<path d="M19.8333 8.66663C21.6283 8.66663 23.0833 7.21155 23.0833 5.41663C23.0833 3.6217 21.6283 2.16663 19.8333 2.16663C18.0384 2.16663 16.5833 3.6217 16.5833 5.41663C16.5833 7.21155 18.0384 8.66663 19.8333 8.66663Z" stroke="#2A2121" stroke-width="2" stroke-linecap="round" stroke-linejoin="round"/>
<path d="M6.83334 16.25C8.62827 16.25 10.0833 14.7949 10.0833 13C10.0833 11.2051 8.62827 9.75 6.83334 9.75C5.03842 9.75 3.58334 11.2051 3.58334 13C3.58334 14.7949 5.03842 16.25 6.83334 16.25Z" stroke="#2A2121" stroke-width="2" stroke-linecap="round" stroke-linejoin="round"/>
<path d="M19.8333 23.8334C21.6283 23.8334 23.0833 22.3783 23.0833 20.5834C23.0833 18.7884 21.6283 17.3334 19.8333 17.3334C18.0384 17.3334 16.5833 18.7884 16.5833 20.5834C16.5833 22.3783 18.0384 23.8334 19.8333 23.8334Z" stroke="#2A2121" stroke-width="2" stroke-linecap="round" stroke-linejoin="round"/>
<path d="M9.63919 14.6359L17.0384 18.9475" stroke="#2A2121" stroke-width="2" stroke-linecap="round" stroke-linejoin="round"/>
<path d="M17.0275 7.05249L9.63919 11.3642" stroke="#2A2121" stroke-width="2" stroke-linecap="round" stroke-linejoin="round"/>
</svg>
